<?xml version="1.0" encoding="UTF-8"?>
<svg width="103px" height="59px" viewBox="0 0 103 59" version="1.1" xmlns="http://www.w3.org/2000/svg" xmlns:xlink="http://www.w3.org/1999/xlink">
    <title>Logo</title>
    <g id="Home-1" stroke="none" stroke-width="1" fill="none" fill-rule="evenodd">
        <g id="Fiore-Home-1" transform="translate(-520.000000, -2630.000000)" fill="#FFFFFF" fill-rule="nonzero">
            <g id="Group-21" transform="translate(0.000000, 2029.000000)">
                <g id="Logo" transform="translate(520.000000, 601.000000)">
                    <path d="M8.05,46 L8.05,28 L22.65,28 L22.65,27.5 L8.05,27.5 L8.05,11.5 L23.8,11.5 L23.8,11 L3.9,11 L3.9,46 L8.05,46 Z M29.15,16 C29.75,16 30.2583333,15.8 30.675,15.4 C31.0916667,15 31.3,14.5 31.3,13.9 C31.3,13.3 31.0916667,12.7916667 30.675,12.375 C30.2583333,11.9583333 29.75,11.75 29.15,11.75 C28.55,11.75 28.05,11.9583333 27.65,12.375 C27.25,12.7916667 27.05,13.3 27.05,13.9 C27.05,14.5 27.25,15 27.65,15.4 C28.05,15.8 28.55,16 29.15,16 Z M34.7,46 L34.7,45.6 L33.15,45.6 L32.55,45.5 C32.1833333,45.4666667 31.8083333,45.1916667 31.425,44.675 C31.0416667,44.1583333 30.85,43.4166667 30.85,42.45 L30.85,42.45 L30.85,21 L27.35,21 L27.35,42.45 L27.4,43.3 C27.4333333,43.9 27.8083333,44.5 28.525,45.1 C29.2416667,45.7 30.2833333,46 31.65,46 L31.65,46 L34.7,46 Z M48.05,46.2 C51.5833333,46.2 54.4916667,45.05 56.775,42.75 C59.0583333,40.45 60.2,37.2166667 60.2,33.05 C60.2,28.8833333 59.1,25.8 56.9,23.8 C54.7,21.8 51.8416667,20.8 48.325,20.8 C44.8083333,20.8 41.9083333,21.95 39.625,24.25 C37.3416667,26.55 36.2,29.7833333 36.2,33.95 C36.2,38.1166667 37.3,41.2 39.5,43.2 C41.7,45.2 44.55,46.2 48.05,46.2 Z M48,45.8 C45.4666667,45.8 43.4333333,44.8333333 41.9,42.9 C40.3666667,40.9666667 39.6,37.9916667 39.6,33.975 C39.6,29.9583333 40.4333333,26.825 42.1,24.575 C43.7666667,22.325 45.8666667,21.2 48.4,21.2 C50.9333333,21.2 52.9666667,22.1666667 54.5,24.1 C56.0333333,26.0333333 56.8,29.0083333 56.8,33.025 C56.8,37.0416667 55.9666667,40.175 54.3,42.425 C52.6333333,44.675 50.5333333,45.8 48,45.8 Z M66.7,46 L66.7,30.85 C66.7666667,29.25 67.4166667,27.5416667 68.65,25.725 C69.8833333,23.9083333 71.25,22.7 72.75,22.1 L72.75,22.1 L72.75,23.15 C72.75,23.8166667 72.9666667,24.3666667 73.4,24.8 C73.8333333,25.2333333 74.3833333,25.45 75.05,25.45 C75.7166667,25.45 76.275,25.2333333 76.725,24.8 C77.175,24.3666667 77.4,23.8166667 77.4,23.15 C77.4,22.4833333 77.175,21.925 76.725,21.475 C76.275,21.025 75.7166667,20.8 75.05,20.8 L75.05,20.8 L74.85,20.8 C72.95,20.8666667 71.25,21.7583333 69.75,23.475 C68.25,25.1916667 67.2333333,27.0166667 66.7,28.95 L66.7,28.95 L66.7,21 L63.2,21 L63.2,46 L66.7,46 Z M90.975,46.2 C94.325,46.2 97.3333333,45.6833333 100,44.65 L100,44.65 L99.85,44.3 C97.25,45.3 94.2833333,45.8 90.95,45.8 C88.5833333,45.8 86.675,44.8333333 85.225,42.9 C83.775,40.9666667 83.05,37.9333333 83.05,33.8 C83.05,32.8333333 83.1,31.9 83.2,31 L83.2,31 L101.05,31 L101.05,31 L101.05,30.5 C101.05,27.3 100.116667,24.8833333 98.25,23.25 C96.3833333,21.6166667 94.0833333,20.8 91.35,20.8 C87.95,20.8 85.15,21.95 82.95,24.25 C80.75,26.55 79.65,29.7833333 79.65,33.95 C79.65,38.1166667 80.7,41.2 82.8,43.2 C84.9,45.2 87.625,46.2 90.975,46.2 Z M97.65,30.6 L83.25,30.6 C83.65,27.6666667 84.5916667,25.3666667 86.075,23.7 C87.5583333,22.0333333 89.25,21.2 91.15,21.2 C93.05,21.2 94.6,21.9666667 95.8,23.5 C97,25.0333333 97.6166667,27.4 97.65,30.6 L97.65,30.6 Z" id="Fiore"></path>
                    <path d="M54.1464466,12.1464466 C54.3417088,11.9511845 54.6582912,11.9511845 54.8535534,12.1464466 C55.0271197,12.320013 55.0464049,12.5894374 54.9114088,12.7843055 L54.8535534,12.8535534 L49.8535534,17.8535534 C49.6582912,18.0488155 49.3417088,18.0488155 49.1464466,17.8535534 C48.9728803,17.679987 48.9535951,17.4105626 49.0885912,17.2156945 L49.1464466,17.1464466 L54.1464466,12.1464466 Z" id="Line-3"></path>
                </g>
            </g>
        </g>
    </g>
</svg>